<?xml version="1.0" encoding="UTF-8" standalone="no"?><!DOCTYPE svg PUBLIC "-//W3C//DTD SVG 1.1//EN" "http://www.w3.org/Graphics/SVG/1.1/DTD/svg11.dtd"><svg width="100%" height="100%" viewBox="0 0 255 132" version="1.1" xmlns="http://www.w3.org/2000/svg" xmlns:xlink="http://www.w3.org/1999/xlink" xml:space="preserve" xmlns:serif="http://www.serif.com/" style="fill-rule:evenodd;clip-rule:evenodd;stroke-linejoin:round;stroke-miterlimit:2;"><rect id="Mesa-de-trabajo2" serif:id="Mesa de trabajo2" x="0" y="0" width="254.606" height="131.668" style="fill:none;"/><clipPath id="_clip1"><rect x="0" y="0" width="254.606" height="131.668"/></clipPath><g clip-path="url(#_clip1)"><g><g><path d="M-5.236,131.276c0.037,-0.036 0.074,-0.071 0.111,-0.106c14.559,-13.857 13.581,-14.053 14.881,-15.287c2.117,-2.01 4.014,-4.557 4.455,-5.096c24.822,-30.354 29.107,-39.622 31.967,-42.338c14.597,-13.859 15.952,-16.778 30.571,-30.656c1.601,-1.52 4.135,-1.454 5.655,0.147c1.52,1.601 1.454,4.135 -0.147,5.655c-14.619,13.878 -15.974,16.797 -30.571,30.656c-2.807,2.665 -6.928,11.819 -31.282,41.6c-0.506,0.619 -2.708,3.525 -5.14,5.834c-1.265,1.201 -0.373,1.419 -13.744,14.203l-0.307,0.532c-0.186,0.224 -1.327,1.168 -1.908,1.551c-0.714,0.47 -1.293,0.613 -1.401,0.64l-1.19,0.11l-1.128,-0.231l-1.11,-0.614l-1.012,-1.175l-0.382,-0.928l-0.136,-1.199l0.46,-1.716l0.793,-1.044c0.191,-0.181 0.38,-0.361 0.566,-0.538Z"/><path d="M76.975,43.795c-1.42,-1.157 -1.903,-3.184 -1.05,-4.89c0.987,-1.975 3.392,-2.776 5.367,-1.789c1.02,0.51 1.73,1.151 2.452,2.36c0.943,1.58 2.412,5.676 14.676,17.941c1.054,1.054 1.422,1.765 1.821,2.714c0.812,1.933 2.025,5.676 26.755,30.406c1.561,1.561 1.561,4.096 0,5.657c-1.561,1.561 -4.096,1.561 -5.657,0c-23.225,-23.224 -26.881,-29.417 -28.048,-31.964c-0.229,-0.501 -0.132,-0.759 -0.529,-1.155c-11.869,-11.869 -15.205,-18.076 -15.788,-19.279Z"/><path d="M24.972,138.405c-2.03,0.867 -4.383,-0.077 -5.25,-2.108c-0.867,-2.03 0.077,-4.383 2.108,-5.25c20.892,-8.923 47.055,-32.608 61.343,-50.742c5.633,-7.149 9.506,-13.225 9.862,-17.054c0.204,-2.198 2.155,-3.817 4.353,-3.613c2.198,0.204 3.817,2.155 3.613,4.353c-0.437,4.702 -4.625,12.484 -11.543,21.265c-14.997,19.034 -42.555,43.782 -64.485,53.148Z"/><path d="M95.988,58.625c-1.561,1.561 -4.096,1.561 -5.657,0c-1.561,-1.561 -1.561,-4.096 -0,-5.657c20.79,-20.791 21.074,-31.754 39.597,-50.277c1.561,-1.561 4.096,-1.561 5.657,-0c1.561,1.561 1.561,4.096 0,5.657c-18.522,18.523 -18.807,29.486 -39.597,50.277Z"/><path d="M129.919,8.339c-1.556,-1.566 -1.548,-4.101 0.019,-5.657c1.566,-1.556 4.101,-1.548 5.657,0.019c9.362,9.424 9.948,15.355 20.296,27.91c9.643,11.699 10.998,16.741 21.485,27.298c1.556,1.566 1.548,4.101 -0.019,5.657c-1.566,1.556 -4.101,1.548 -5.657,-0.019c-10.711,-10.782 -12.135,-15.899 -21.983,-27.848c-10.127,-12.287 -10.636,-18.138 -19.798,-27.36Z"/><path d="M136.939,38.913c0.848,-0.835 1.864,-1.764 2.619,-2.231c1.386,-0.858 2.876,-1.256 4.438,-1.091c1.406,0.149 2.975,0.749 4.575,2.348c4.674,4.674 4.436,4.436 9.275,9.275c1.561,1.561 1.561,4.096 0,5.657c-1.561,1.561 -4.096,1.561 -5.657,0c-4.712,-4.712 -4.61,-4.61 -8.916,-8.916c-0.399,0.376 -0.933,0.889 -1.257,1.237c-0.836,0.899 -1.669,1.689 -2.447,2.184c-1.293,0.823 -2.604,1.085 -3.863,0.901c-1.421,-0.208 -3.234,-1.006 -4.66,-3.841c-0.172,0.005 -0.459,0.018 -0.656,0.056c-0.389,0.074 -0.8,0.194 -1.234,0.347c-1.898,0.666 -4.1,1.886 -6.536,3.378c-6.873,4.21 -15.315,10.477 -23.619,14.629c-1.975,0.987 -4.379,0.186 -5.367,-1.789c-0.987,-1.975 -0.186,-4.379 1.789,-5.367c11.644,-5.822 23.574,-15.765 31.084,-18.401c4.625,-1.623 8.14,-1.074 10.431,1.622Z"/><path d="M60.508,130.987c0.426,-0.235 4.986,-2.758 10.267,-5.877c25.249,-14.911 87.019,-52.89 101.82,-67.693c5.668,-5.669 10.971,-10.814 13.925,-12.013c1.744,-0.708 3.23,-0.619 4.371,-0.185c1.418,0.54 2.701,1.641 3.254,3.853c5.859,23.437 10.227,21.168 21.031,42.777c4.276,8.551 11.211,15.02 18.187,20.557c7.549,5.993 15.182,10.95 20.209,15.977c1.561,1.561 1.561,4.096 0,5.657c-1.561,1.561 -4.096,1.561 -5.657,0c-4.849,-4.849 -12.244,-9.588 -19.526,-15.368c-7.855,-6.236 -15.554,-13.616 -20.369,-23.245c-10.644,-21.289 -15.116,-20.287 -20.748,-41.001c-0.252,0.197 -0.499,0.399 -0.725,0.597c-2.384,2.085 -5.256,5.012 -8.295,8.052c-15.045,15.045 -77.746,53.769 -103.409,68.924c-6.945,4.101 -11.452,6.485 -11.946,6.609c-2.142,0.535 -4.315,-0.769 -4.851,-2.91c-0.497,-1.988 0.591,-4.003 2.462,-4.71Z"/><path d="M107.705,107.453c0.03,0.026 0.083,0.072 0.128,0.11c0.919,0.776 3.892,3.117 7.403,4.801c1.996,0.957 4.172,1.757 6.191,1.655c8.014,-0.406 21.026,5.497 24.969,15.758c0.792,2.061 -0.238,4.377 -2.299,5.169c-2.061,0.792 -4.377,-0.238 -5.169,-2.299c-2.69,-6.998 -11.632,-10.915 -17.097,-10.638c-3.588,0.182 -7.562,-1.126 -11.021,-2.913c-4.913,-2.539 -8.733,-5.948 -8.885,-6.121c-1.458,-1.658 -1.295,-4.188 0.363,-5.645c1.574,-1.384 3.934,-1.307 5.416,0.123Z"/><path d="M192.075,64.838c1.561,-1.561 4.096,-1.561 5.657,0c1.561,1.561 1.561,4.096 -0,5.657c-8.943,8.943 -11.312,12.494 -16.086,14.532c-3.194,1.363 -7.513,2.062 -15.753,2.978c-0.564,0.063 -4.894,-0.281 -7.546,2.805c-1.086,1.264 -1.8,3.117 -1.938,5.743c-0.09,1.709 1.046,2.672 2.687,3.323c3.018,1.197 7.333,1.448 12.319,1.206c7.333,-0.357 15.997,-1.889 24.408,-3.912c1.329,-0.319 1.215,0.311 16.847,-2.816c2.165,-0.433 4.274,0.973 4.707,3.138c0.433,2.165 -0.973,4.274 -3.138,4.707c-15.35,3.07 -15.241,2.436 -16.545,2.749c-16.091,3.87 -33.056,5.732 -41.547,2.365c-5.221,-2.07 -8.013,-5.745 -7.727,-11.181c0.256,-4.861 1.849,-8.196 3.859,-10.536c4.574,-5.323 11.759,-5.435 12.731,-5.543c7.044,-0.783 10.766,-1.22 13.496,-2.385c1.759,-0.751 3.008,-1.862 4.679,-3.558c2.116,-2.148 4.718,-5.101 8.89,-9.272Z"/><path d="M178.857,100.583c2.112,-0.643 4.349,0.55 4.991,2.662c0.643,2.112 -0.55,4.349 -2.662,4.991c-6.048,1.841 -10.061,3.77 -12.417,5.791c-1.159,0.994 -1.906,1.785 -1.701,2.698c0.344,1.536 2.11,2.61 4.202,3.61c4.403,2.103 10.701,3.023 16.297,1.816c5.718,-1.233 9.566,-3.333 12.562,-4.2c3.394,-0.983 6.109,-0.781 8.711,1.104c2.053,1.487 4.207,4.486 6.477,10.211c0.814,2.052 -0.192,4.379 -2.244,5.193c-2.052,0.814 -4.379,-0.192 -5.193,-2.244c-0.947,-2.387 -1.79,-4.155 -2.637,-5.416c-0.447,-0.665 -0.798,-1.153 -1.261,-1.364c-0.4,-0.183 -0.822,-0.011 -1.317,0.116c-0.854,0.219 -1.785,0.575 -2.831,0.983c-2.761,1.077 -6.159,2.485 -10.582,3.439c-8.654,1.866 -18.558,-0.21 -24.278,-4.024c-3.129,-2.087 -5.1,-4.737 -5.713,-7.472c-0.616,-2.747 -0.059,-5.75 2.497,-8.731c2.623,-3.059 7.919,-6.367 17.099,-9.161Z"/></g></g></g></svg>