<?xml version="1.0" encoding="UTF-8" standalone="no"?><!DOCTYPE svg PUBLIC "-//W3C//DTD SVG 1.1//EN" "http://www.w3.org/Graphics/SVG/1.1/DTD/svg11.dtd"><svg width="100%" height="100%" viewBox="0 0 255 132" version="1.1" xmlns="http://www.w3.org/2000/svg" xmlns:xlink="http://www.w3.org/1999/xlink" xml:space="preserve" xmlns:serif="http://www.serif.com/" style="fill-rule:evenodd;clip-rule:evenodd;stroke-linejoin:round;stroke-miterlimit:2;"><rect id="Mesa-de-trabajo2" serif:id="Mesa de trabajo2" x="0" y="0" width="254.606" height="131.668" style="fill:none;"/><clipPath id="_clip1"><rect x="0" y="0" width="254.606" height="131.668"/></clipPath><g clip-path="url(#_clip1)"><g><path d="M-3.711,133.185c0.037,-0.036 0.074,-0.071 0.111,-0.106c14.559,-13.857 13.581,-14.053 14.881,-15.287c2.117,-2.01 4.014,-4.557 4.455,-5.096c24.822,-30.354 29.107,-39.622 31.967,-42.338c14.597,-13.859 15.952,-16.778 30.571,-30.656c1.601,-1.52 4.135,-1.454 5.655,0.147c1.52,1.601 1.454,4.135 -0.147,5.655c-14.619,13.878 -15.974,16.797 -30.571,30.656c-2.807,2.665 -6.928,11.819 -31.282,41.6c-0.506,0.619 -2.708,3.525 -5.14,5.834c-1.265,1.201 -0.373,1.419 -13.744,14.203l-0.307,0.532c-0.186,0.224 -1.327,1.168 -1.908,1.551c-0.714,0.47 -1.293,0.613 -1.401,0.64l-1.19,0.11l-1.128,-0.231l-1.11,-0.614l-1.012,-1.175l-0.382,-0.928l-0.136,-1.199l0.46,-1.716l0.793,-1.044c0.191,-0.181 0.38,-0.361 0.566,-0.538Z"/><path d="M78.5,45.705c-1.42,-1.157 -1.903,-3.184 -1.05,-4.89c0.987,-1.975 3.392,-2.776 5.367,-1.789c1.02,0.51 1.73,1.151 2.452,2.36c0.943,1.58 2.412,5.676 14.676,17.941c1.054,1.054 1.422,1.765 1.821,2.714c0.812,1.933 2.025,5.676 26.755,30.406c1.561,1.561 1.561,4.096 0,5.657c-1.561,1.561 -4.096,1.561 -5.657,0c-23.225,-23.224 -26.881,-29.417 -28.048,-31.964c-0.229,-0.501 -0.132,-0.759 -0.529,-1.155c-11.869,-11.869 -15.205,-18.076 -15.788,-19.279Z"/><path d="M97.513,60.535c-1.561,1.561 -4.096,1.561 -5.657,0c-1.561,-1.561 -1.561,-4.096 -0,-5.657c20.79,-20.791 21.074,-31.754 39.597,-50.277c1.561,-1.561 4.096,-1.561 5.657,-0c1.561,1.561 1.561,4.096 0,5.657c-18.522,18.523 -18.807,29.486 -39.597,50.277Z"/><path d="M131.444,10.249c-1.556,-1.566 -1.548,-4.101 0.019,-5.657c1.566,-1.556 4.101,-1.548 5.657,0.019c9.362,9.424 9.948,15.355 20.296,27.91c9.643,11.699 10.998,16.741 21.485,27.298c1.556,1.566 1.548,4.101 -0.019,5.657c-1.566,1.556 -4.101,1.548 -5.657,-0.019c-10.711,-10.782 -12.135,-15.899 -21.983,-27.848c-10.127,-12.287 -10.636,-18.138 -19.798,-27.36Z"/><path d="M128.01,47.47c1.242,-0.792 3.524,-2.28 5.079,-3.485c3.047,-2.36 6.249,-4.694 8.914,-5.617c3.213,-1.113 5.975,-0.637 8.093,1.48c4.674,4.674 4.436,4.436 9.275,9.275c1.561,1.561 1.561,4.096 0,5.657c-1.561,1.561 -4.096,1.561 -5.657,0c-4.698,-4.697 -4.611,-4.611 -8.877,-8.877c-0.445,0.166 -1.336,0.517 -1.934,0.874c-2.463,1.472 -5.159,3.78 -7.613,5.591c-2.731,2.016 -5.345,3.393 -7.273,3.619c-2.699,0.316 -4.874,-0.609 -6.274,-3.409c-0.111,-0.223 -0.28,-0.48 -0.41,-0.667c-0.28,0.098 -0.699,0.253 -1,0.409c-1.174,0.607 -2.501,1.512 -4.04,2.585c-3.916,2.732 -8.994,6.463 -15.767,9.85c-1.975,0.987 -4.379,0.186 -5.367,-1.789c-0.987,-1.975 -0.186,-4.379 1.789,-5.367c9.874,-4.937 16.029,-10.645 20.255,-12.657c2.501,-1.191 4.661,-1.39 6.522,-0.825c1.512,0.46 2.997,1.446 4.284,3.351Z"/><path d="M62.033,132.896c0.426,-0.235 4.986,-2.758 10.267,-5.877c25.249,-14.911 87.019,-52.89 101.82,-67.693c5.668,-5.669 10.971,-10.814 13.925,-12.013c1.744,-0.708 3.23,-0.619 4.371,-0.185c1.418,0.54 2.701,1.641 3.254,3.853c5.859,23.437 10.227,21.168 21.031,42.777c4.276,8.551 11.211,15.02 18.187,20.557c7.549,5.993 15.182,10.95 20.209,15.977c1.561,1.561 1.561,4.096 0,5.657c-1.561,1.561 -4.096,1.561 -5.657,0c-4.849,-4.849 -12.244,-9.588 -19.526,-15.368c-7.855,-6.236 -15.554,-13.616 -20.369,-23.245c-10.644,-21.289 -15.116,-20.287 -20.748,-41.001c-0.252,0.197 -0.499,0.399 -0.725,0.597c-2.384,2.085 -5.256,5.012 -8.295,8.052c-15.045,15.045 -77.746,53.769 -103.409,68.924c-6.945,4.101 -11.452,6.485 -11.946,6.609c-2.142,0.535 -4.315,-0.769 -4.851,-2.91c-0.497,-1.988 0.591,-4.003 2.462,-4.71Z"/><path d="M196.942,120.426c-12.466,-0.382 -22.392,0.496 -28.234,-0.676c-3.592,-0.721 -6.02,-2.227 -7.421,-4.345c-1.026,-1.552 -1.591,-3.503 -1.42,-6.019c0.464,-6.81 4.627,-10.173 8.915,-11.814c3.539,-1.354 7.132,-1.373 7.77,-1.428c7.161,-0.616 10.937,-0.971 13.713,-1.888c4.117,-1.359 5.922,-3.985 13.634,-9.952c1.746,-1.351 4.26,-1.031 5.611,0.715c1.351,1.746 1.031,4.26 -0.715,5.611c-8.936,6.915 -11.251,9.647 -16.021,11.222c-3.148,1.04 -7.414,1.564 -15.536,2.262c-0.458,0.039 -3.055,-0.043 -5.596,0.929c-1.792,0.686 -3.599,2.04 -3.793,4.886c-0.031,0.448 -0.079,0.817 0.123,1.079c0.273,0.356 0.761,0.485 1.32,0.654c1.036,0.313 2.29,0.485 3.736,0.597c5.876,0.456 14.395,-0.154 24.654,0.186c0.533,0.018 4.261,1.078 7.89,3.429c3.67,2.378 7.097,5.995 7.737,10.127c0.472,3.043 -0.3,6.543 -3.836,10.199c-2.633,2.723 -7.088,5.712 -14.207,8.744c-2.031,0.865 -4.382,-0.082 -5.247,-2.113c-0.865,-2.031 0.082,-4.382 2.113,-5.247c5.766,-2.455 9.458,-4.74 11.591,-6.945c1.234,-1.276 1.845,-2.35 1.681,-3.412c-0.203,-1.313 -1.257,-2.356 -2.35,-3.287c-2.035,-1.732 -5.42,-3.219 -6.112,-3.514Z"/></g></g></svg>